<?xml version="1.0" encoding="UTF-8" standalone="no"?>
<svg
  xmlns:dc="http://purl.org/dc/elements/1.1/"
  xmlns:cc="http://creativecommons.org/ns#"
  xmlns:rdf="http://www.w3.org/1999/02/22-rdf-syntax-ns#"
  xmlns:svg="http://www.w3.org/2000/svg"
  xmlns="http://www.w3.org/2000/svg"
  xmlns:sodipodi="http://sodipodi.sourceforge.net/DTD/sodipodi-0.dtd"
  xmlns:inkscape="http://www.inkscape.org/namespaces/inkscape"
  height="47.95908pt"
  viewBox="0 0 48.03447 47.95908"
  width="47.999996pt"
  version="1.1"
  id="svg12"
  sodipodi:docname="hours.svg"
  inkscape:version="0.92.4 (unknown)"
>
  <defs>
    <style>
      .cls-1 {
        fill: #fff;
        fill-rule: evenodd;
      }
    </style>
  </defs>
  <g
    id="g10"
    transform="matrix(0.03883498,0,0,0.038802,0,-0.461129)"
    style="fill:#231f20"
  >
    <path
      class="cls-1"
      d="M 1175.0391,0.445312 H 61.84375 C 27.6875,0.445312 0,28.136719 0,62.289062 V 804.41797 c 0,34.15625 27.6875,61.84375 61.84375,61.84375 h 350.44922 c 56.90234,0.0703 103.00781,46.17969 103.07422,103.07422 -0.10157,56.88676 -46.1875,102.96876 -103.07422,103.07426 -0.26563,0 -0.47266,0.1445 -0.74219,0.1445 -1.58984,0.1289 -3.16015,0.4492 -4.67969,0.9492 -1.05859,0.1992 -2.09765,0.4922 -3.11328,0.8672 -1.25,0.668 -2.42968,1.4609 -3.52343,2.3672 -2.15235,1.1836 -3.875,3.0273 -4.90625,5.2539 -0.8711,1.1992 -1.61329,2.4805 -2.20313,3.8359 0,0.25 -0.28906,0.418 -0.37109,0.6836 l -41.23047,123.6914 c -3.59766,10.7969 2.24219,22.4727 13.04687,26.0703 2.09375,0.6954 4.28907,1.0547 6.4961,1.0547 h 494.75 c 11.38672,-0.01 20.61328,-9.2461 20.60156,-20.6289 0,-2.207 -0.35547,-4.4023 -1.05469,-6.4961 l -41.23047,-123.6914 c 0,-0.2656 -0.28515,-0.4336 -0.37109,-0.6836 -1.25391,-2.3789 -2.66797,-4.6797 -4.24219,-6.8593 -0.89062,-0.8243 -1.84766,-1.5704 -2.87109,-2.2305 -1.08985,-0.9024 -2.26953,-1.6992 -3.52344,-2.3672 -1.01172,-0.375 -2.05469,-0.6641 -3.11328,-0.8633 -1.51563,-0.5039 -3.08594,-0.8203 -4.67578,-0.9531 -0.27344,0 -0.48047,-0.1406 -0.74219,-0.1406 -56.88672,-0.1016 -102.97656,-46.1914 -103.07422,-103.07426 0.0703,-56.89843 46.17188,-103.0039 103.07422,-103.07421 h 350.44535 c 34.1562,0 61.8476,-27.69141 61.8476,-61.84375 V 62.289062 c 0,-34.152343 -27.6914,-61.84375 -61.8476,-61.84375 z M 680.28516,969.33594 c 0.0976,73.80076 55.78906,135.66406 129.17578,143.50386 l 27.74219,83.2579 H 399.67969 l 27.74219,-83.2579 c 73.39843,-7.8203 129.09765,-69.6992 129.17578,-143.50386 0.008,-38.82422 -15.6875,-76.00391 -43.51953,-103.07422 h 210.72656 c -27.83203,27.07031 -43.52735,64.25 -43.51953,103.07422 z M 1195.6523,804.41797 c 0,11.38672 -9.2265,20.61328 -20.6132,20.61328 H 61.84375 c -11.386719,0 -20.613281,-9.22656 -20.613281,-20.61328 V 742.57422 H 1195.6523 Z M 41.230469,701.34375 V 62.289062 c 0,-11.382812 9.226562,-20.617187 20.613281,-20.617187 H 1175.0391 c 11.3867,0 20.6132,9.234375 20.6132,20.617187 V 701.34375 Z m 0,0"
      id="path2"
      inkscape:connector-curvature="0"
    />
    <path
      class="cls-1"
      d="m 618.44141,82.902344 c -159.39454,0 -288.60547,129.214846 -288.60547,288.605466 0,159.39453 129.21094,288.60547 288.60547,288.60547 159.39453,0 288.60546,-129.21094 288.60546,-288.60547 C 906.875,212.1875 777.76172,83.074219 618.44141,82.902344 Z m 141.0039,491.601566 -9.76953,-16.92579 -35.70703,20.61329 9.73437,16.86328 c -26.62109,12.62109 -55.29296,20.33593 -84.64843,22.78125 v -19.5586 h -41.22657 v 19.5586 c -29.35546,-2.44532 -58.02734,-10.16016 -84.64843,-22.78125 l 9.73437,-16.86328 -35.70703,-20.61329 -9.76953,16.92579 c -24.16406,-16.84375 -45.14844,-37.82813 -61.99219,-61.99219 l 16.92578,-9.76953 -20.61328,-35.70313 -16.86328,9.73047 C 382.28125,450.15234 374.5625,421.48047 372.11328,392.125 h 19.56641 v -41.23047 h -19.56641 c 2.44922,-29.35156 10.16797,-58.02734 22.78125,-84.64062 l 16.86328,9.72656 20.61328,-35.70703 -16.92578,-9.76953 c 16.84375,-24.15625 37.82813,-45.14844 61.99219,-61.98438 l 9.76953,16.92578 35.70703,-20.61718 -9.73437,-16.86329 c 26.62109,-12.61718 55.29297,-20.33203 84.64843,-22.77734 v 19.55859 h 41.22657 V 125.1875 c 29.35547,2.44531 58.02734,10.16016 84.64843,22.77734 l -9.73437,16.86329 35.70703,20.61718 9.76953,-16.92578 c 24.16406,16.83594 45.14844,37.82813 61.99219,61.98438 l -16.92578,9.76953 20.61328,35.70703 16.86328,-9.72656 c 12.61328,26.61328 20.33203,55.28906 22.78125,84.64062 H 845.20312 V 392.125 h 19.56641 c -2.41797,29.34766 -10.09766,58.01953 -22.67969,84.64453 l -16.86328,-9.73047 -20.61328,35.70313 16.92578,9.76953 c -16.87109,24.17187 -37.89844,45.16016 -62.09375,61.99219 z m 0,0"
      id="path4"
      inkscape:connector-curvature="0"
    />
    <path
      class="cls-1"
      d="m 577.21094,268.43359 h -82.45703 c -11.38672,0 -20.61719,9.23047 -20.61719,20.61719 0,11.38672 9.23047,20.61328 20.61719,20.61328 h 61.84375 v 41.23047 h -61.84375 c -11.38672,0 -20.61719,9.22656 -20.61719,20.61328 v 82.46094 c 0,11.38281 9.23047,20.61328 20.61719,20.61328 h 82.45703 c 11.38672,0 20.61718,-9.23047 20.61718,-20.61328 0,-11.38672 -9.23046,-20.61719 -20.61718,-20.61719 H 515.36719 V 392.125 h 61.84375 c 11.38672,0 20.61718,-9.23047 20.61718,-20.61719 v -82.45703 c 0,-11.38672 -9.23046,-20.61719 -20.61718,-20.61719 z m 0,0"
      id="path6"
      inkscape:connector-curvature="0"
    />
    <path
      class="cls-1"
      d="m 742.12891,268.43359 c -11.38672,0 -20.61329,9.23047 -20.61329,20.61719 v 61.84375 h -41.23046 v -61.84375 c 0,-11.38672 -9.22657,-20.61719 -20.61329,-20.61719 -11.38671,0 -20.61718,9.23047 -20.61718,20.61719 v 82.45703 c 0,11.38672 9.23047,20.61719 20.61718,20.61719 h 61.84375 v 61.84375 c 0,11.38281 9.22657,20.61328 20.61329,20.61328 11.38671,0 20.61718,-9.23047 20.61718,-20.61328 V 289.05078 c 0,-11.38672 -9.23046,-20.61719 -20.61718,-20.61719 z m 0,0"
      id="path8"
      inkscape:connector-curvature="0"
    />
  </g>
</svg>
