<?xml version="1.0" encoding="UTF-8" standalone="no"?>
<!-- Svg Vector Icons : http://www.onlinewebfonts.com/icon -->

<svg
  xmlns:dc="http://purl.org/dc/elements/1.1/"
  xmlns:cc="http://creativecommons.org/ns#"
  xmlns:rdf="http://www.w3.org/1999/02/22-rdf-syntax-ns#"
  xmlns:svg="http://www.w3.org/2000/svg"
  xmlns="http://www.w3.org/2000/svg"
  xmlns:sodipodi="http://sodipodi.sourceforge.net/DTD/sodipodi-0.dtd"
  xmlns:inkscape="http://www.inkscape.org/namespaces/inkscape"
  version="1.1"
  x="0px"
  y="0px"
  viewBox="0 0 64.000008 65.2117"
  enable-background="new 0 0 1000 1000"
  xml:space="preserve"
  id="svg24"
  sodipodi:docname="siren.svg"
  width="64.000008"
  height="65.2117"
  inkscape:version="0.92.4 (unknown)"
>
  <defs>
    <style>
      .cls-1 {
        fill: #ef5120;
        fill-rule: evenodd;
      }
    </style>
  </defs>
  <g
    id="g22"
    transform="matrix(0.06530746,0,0,0.06530746,-0.6530746,-0.04832522)"
  >
    <g transform="matrix(0.1,0,0,-0.1,0,511)" id="g20">
      <path
        class="cls-1"
        d="m 4870.4,5043.8 -58.9,-56.5 V 4254.7 3522 l 58.9,-56.5 c 35.3,-37.7 84.8,-58.9 129.6,-58.9 44.8,0 94.2,21.2 129.6,58.9 l 58.9,56.5 v 732.6 732.6 l -58.9,56.5 c -35.3,37.7 -84.8,58.9 -129.6,58.9 -44.8,0.1 -94.2,-21.1 -129.6,-58.8 z"
        id="path4"
        inkscape:connector-curvature="0"
      />
      <path
        class="cls-1"
        d="m 1537,3665.7 c -30.6,-30.6 -47.1,-77.7 -47.1,-134.3 0,-82.5 28.3,-117.8 513.6,-600.7 459.4,-459.4 520.6,-513.6 588.9,-513.6 103.7,0 193.2,89.5 193.2,193.2 0,68.3 -54.2,129.6 -513.6,588.9 -482.9,485.3 -518.3,513.5 -600.7,513.5 -56.5,0.1 -103.7,-16.4 -134.3,-47 z"
        id="path6"
        inkscape:connector-curvature="0"
      />
      <path
        class="cls-1"
        d="m 7728,3199.3 c -459.4,-459.4 -513.6,-520.6 -513.6,-588.9 0,-51.8 18.8,-96.6 58.9,-134.3 37.7,-40 82.5,-58.9 134.3,-58.9 68.3,0 129.6,54.2 588.9,513.6 485.3,482.9 513.6,518.3 513.6,600.7 0,56.5 -16.5,103.7 -47.1,134.3 -30.6,30.6 -77.7,47.1 -134.3,47.1 -82.5,-0.1 -117.8,-28.4 -600.7,-513.6 z"
        id="path8"
        inkscape:connector-curvature="0"
      />
      <path
        class="cls-1"
        d="M 4682,3015.5 C 3987,2909.5 3468.8,2655.1 3007,2195.7 2620.7,1807 2373.3,1366.5 2236.7,815.2 2189.6,622 2187.2,553.7 2180.2,-1427.5 c -9.4,-2266.2 -18.8,-2146.1 148.4,-2270.9 l 87.2,-68.3 2553.7,-7.1 c 2845.8,-7.1 2650.2,-16.5 2782.2,155.5 l 63.6,82.5 v 2040.1 c 0,2207.3 2.3,2160.2 -131.9,2574.8 -136.6,421.7 -365.1,789.2 -690.3,1116.6 -400.5,400.5 -869.3,654.9 -1432.3,777.4 -167.4,35.3 -735.1,63.6 -878.8,42.4 z m 683.1,-775 C 6149.6,2103.9 6776.2,1524.3 7009.4,721 c 49.5,-174.3 49.5,-209.7 58.9,-1960 l 7.1,-1785.7 H 5000 2926.9 v 1693.8 c 0,1411.1 7.1,1726.8 35.3,1898.7 195.6,1119.1 1274.5,1868.2 2402.9,1672.7 z"
        id="path10"
        inkscape:connector-curvature="0"
      />
      <path
        class="cls-1"
        d="m 4870.4,1651.5 c -129.6,-127.2 -35.3,-318 157.8,-318 362.8,0 782.1,-256.8 958.8,-586.6 C 6130.8,476 6130.8,476 6130.8,-1088.2 v -1420.5 l 58.9,-56.6 c 75.4,-77.7 183.7,-77.7 259.1,0 l 58.9,56.6 v 1432.3 c 0,1616 -2.3,1627.8 -169.6,1962.3 -197.9,393.4 -593.7,699.7 -1020,789.2 -254.5,54.2 -379.4,47.1 -447.7,-23.6 z"
        id="path12"
        inkscape:connector-curvature="0"
      />
      <path
        class="cls-1"
        d="M 158.9,332.3 C 121.2,297 100,247.5 100,202.7 100,157.9 121.2,108.5 158.9,73.1 L 215.4,14.2 H 948 1680.6 l 56.5,58.9 c 77.7,75.4 77.7,183.7 0,259.1 l -56.5,58.9 H 948.1 215.4 Z"
        id="path14"
        inkscape:connector-curvature="0"
      />
      <path
        class="cls-1"
        d="m 8262.7,332.3 c -37.7,-35.3 -58.9,-84.8 -58.9,-129.6 0,-44.8 21.2,-94.2 58.9,-129.6 l 56.5,-58.9 h 732.6 732.6 l 56.5,58.9 c 37.7,35.3 58.9,84.8 58.9,129.6 0,44.8 -21.2,94.2 -58.9,129.6 l -56.5,58.9 h -732.6 -732.6 z"
        id="path16"
        inkscape:connector-curvature="0"
      />
      <path
        class="cls-1"
        d="m 889.2,-4164.9 c -157.8,-68.3 -247.4,-249.7 -214.4,-426.4 21.2,-110.7 139,-240.3 245,-270.9 61.2,-18.8 1368.7,-23.6 4226.3,-18.8 4136.7,7.1 4139.1,7.1 4202.7,56.5 124.9,91.9 162.6,167.3 162.6,315.7 0,148.4 -37.7,223.8 -162.6,315.7 l -63.6,49.5 -4162.7,4.7 c -3425.3,4.7 -4174.4,-0.1 -4233.3,-26 z"
        id="path18"
        inkscape:connector-curvature="0"
      />
    </g>
  </g>
</svg>
