<svg xmlns="http://www.w3.org/2000/svg" viewBox="0 0 1000 1000">
  <defs>
    <style>
      .cls-1 {
        fill: #fff;
        fill-rule: evenodd;
      }
    </style>
  </defs>
  <path
    class="cls-1"
    d="M990 500c0-270.6-219.4-490-490-490S10 229.4 10 500s219.4 490 490 490 490-219.4 490-490zm-311.7 77.9h.1l117.8 118.2c9.1 9.1 8.9 23.7 0 32.7l-41.7 41.6-150.6-150.9 41.5-41.7h.1c9.6-9.5 24.1-8.6 32.8.1zm-406.2-374c9.6-9.6 24.1-8.7 32.9 0h.1l114.5 114.9c9.1 9.1 8.9 23.6 0 32.7L378 393.1 230.6 245.6l41.5-41.7zm99.2 439.8C146 423.5 194.2 281.5 219.6 257l147 147.2c-20.5 20.6-2.3 47.1 39.1 97.9 27.4 33.6 64.2 72.4 105.7 105.9 29.1 23.6 59.7 44.4 81.2 22.9l150.5 151c-27.5 22-158 70.7-371.8-138.2z"
  />
</svg>
