<svg
  id="Layer_1"
  data-name="Layer 1"
  xmlns="http://www.w3.org/2000/svg"
  width="35"
  height="35"
  viewBox="0 0 35 35"
>
  <defs>
    <style>
      .cls-1 {
        fill: #fff;
        fill-rule: evenodd;
      }
    </style>
  </defs>
  <title>icon__socialLinked</title>
  <path
    class="cls-1"
    d="M17.5,0A17.5,17.5,0,1,0,35,17.5,17.51,17.51,0,0,0,17.5,0ZM13.34,24H9.84V12.71h3.5ZM11.57,11.33a1.75,1.75,0,1,1,0-3.5,1.75,1.75,0,1,1,0,3.5ZM26.11,24h-3.5V17.72c0-1.44-.51-2.43-1.77-2.43A1.92,1.92,0,0,0,19,16.6a2.56,2.56,0,0,0-.11.87V24h-3.5V16.3c0-1.4,0-2.58-.09-3.59h3l.16,1.56h.07a4,4,0,0,1,3.47-1.81c2.3,0,4,1.54,4,4.85Z"
  />
</svg>
