<svg
  id="Layer_1"
  data-name="Layer 1"
  xmlns="http://www.w3.org/2000/svg"
  width="35"
  height="35"
  viewBox="0 0 35 35"
>
  <defs>
    <style>
      .cls-1 {
        fill: #fff;
        fill-rule: evenodd;
      }
    </style>
  </defs>
  <title>icon__socialInsta</title>
  <path
    class="cls-1"
    d="M26.46,10.76a3.82,3.82,0,0,0-2.18-2.18,6.58,6.58,0,0,0-2.14-.4c-1,0-1.46-.06-3.52-.06H16.37c-2.06,0-2.47,0-3.52.06a6.44,6.44,0,0,0-2.13.4,3.68,3.68,0,0,0-1.33.86,3.64,3.64,0,0,0-.86,1.32,6.65,6.65,0,0,0-.39,2.14c-.05,1-.06,1.46-.07,3.52v2.25c0,2.06,0,2.47.07,3.52a6.51,6.51,0,0,0,.39,2.13,3.56,3.56,0,0,0,.86,1.32,3.43,3.43,0,0,0,1.33.86,6.18,6.18,0,0,0,2.13.4C14,27,14.4,27,17.19,27h.61c2.79,0,3.17,0,4.34-.07a6.31,6.31,0,0,0,2.14-.4,3.4,3.4,0,0,0,1.32-.86,3.56,3.56,0,0,0,.86-1.32,6.25,6.25,0,0,0,.39-2.13c.06-1.17.07-1.55.07-4.34v-.62c0-2.78,0-3.16-.07-4.33A6.38,6.38,0,0,0,26.46,10.76Zm-9,12.69a5.91,5.91,0,1,1,5.9-5.91A5.92,5.92,0,0,1,17.5,23.45Zm6.13-10.67A1.38,1.38,0,1,1,25,11.41,1.37,1.37,0,0,1,23.63,12.78Z"
  />
  <path
    class="cls-1"
    d="M17.5,13.71a3.83,3.83,0,1,0,3.83,3.83A3.84,3.84,0,0,0,17.5,13.71Z"
  />
  <path
    class="cls-1"
    d="M17.5,0A17.5,17.5,0,1,0,35,17.5,17.51,17.51,0,0,0,17.5,0ZM29,18.43c0,2.32,0,2.75-.07,3.85a8.36,8.36,0,0,1-.53,2.79A5.87,5.87,0,0,1,25,28.43a8.39,8.39,0,0,1-2.79.54c-1.1.05-1.53.07-3.86.07H16.61c-2.33,0-2.75,0-3.85-.07A8.34,8.34,0,0,1,10,28.43a5.54,5.54,0,0,1-2-1.32,5.7,5.7,0,0,1-1.33-2,8.62,8.62,0,0,1-.53-2.79C6,21.22,6,20.79,6,18.69V16.4c0-2.1,0-2.54.07-3.6A8.68,8.68,0,0,1,6.6,10,5.67,5.67,0,0,1,7.93,8a5.57,5.57,0,0,1,2-1.33,8.34,8.34,0,0,1,2.79-.54c1.05,0,1.49-.06,3.59-.06h2.29c2.1,0,2.54,0,3.6.06A8.39,8.39,0,0,1,25,6.65a5.62,5.62,0,0,1,2,1.33,5.54,5.54,0,0,1,1.33,2,8.42,8.42,0,0,1,.53,2.79c0,1.1.07,1.53.07,3.86Z"
  />
</svg>
