<svg
  id="Layer_1"
  data-name="Layer 1"
  xmlns="http://www.w3.org/2000/svg"
  width="35"
  height="35"
  viewBox="0 0 35 35"
>
  <defs>
    <style>
      .cls-1 {
        fill: #fff;
        fill-rule: evenodd;
      }
    </style>
  </defs>
  <title>icon__socialVK</title>
  <path
    class="cls-1"
    d="M17.5,0A17.5,17.5,0,1,0,35,17.5,17.51,17.51,0,0,0,17.5,0ZM27.88,25.24h-2.6c-1,0-1.29-.81-3.05-2.58C20.68,21.17,20,21,19.62,21c-.53,0-.68.12-.68.88V24.2c0,.63-.2,1-1.87,1-2.75,0-5.81-1.67-8-4.77C5.88,15.89,5,12.46,5,11.77c0-.37.13-.73.88-.73H8.51c.66,0,.91.28,1.16,1C11,15.77,13.11,19,14,19c.33,0,.48-.15.48-1V14.2c-.1-1.77-1-1.92-1-2.55a.63.63,0,0,1,.65-.61h4.09c.56,0,.76.31.76,1v5.18c0,.56.23.76.41.76s.6-.2,1.21-.81a22.25,22.25,0,0,0,3.21-5.33,1.14,1.14,0,0,1,1.13-.73h2.6c.79,0,1,.4.79,1-.33,1.51-3.51,6-3.49,6-.28.45-.38.65,0,1.16s1.19,1.16,1.79,1.87a11,11,0,0,1,2.2,3.06C29,24.86,28.64,25.24,27.88,25.24Z"
  />
</svg>
