<svg
  id="Layer_1"
  data-name="Layer 1"
  xmlns="http://www.w3.org/2000/svg"
  width="35"
  height="35"
  viewBox="0 0 35 35"
>
  <defs>
    <style>
      .cls-1 {
        fill: #fff;
        fill-rule: evenodd;
      }
    </style>
  </defs>
  <title>icon__socialTwitter</title>
  <path
    class="cls-1"
    d="M17.5,0A17.5,17.5,0,1,0,35,17.5,17.5,17.5,0,0,0,17.5,0Zm8.79,14.82c0,.18,0,.36,0,.55A12,12,0,0,1,7.83,25.48c.33,0,.67.05,1,.05a8.5,8.5,0,0,0,5.24-1.8,4.23,4.23,0,0,1-3.94-2.93,4.07,4.07,0,0,0,.79.07A4.5,4.5,0,0,0,12,20.73a4.23,4.23,0,0,1-3.38-4.14v-.05a4.25,4.25,0,0,0,1.91.52,4.22,4.22,0,0,1-1.31-5.63A12,12,0,0,0,18,15.84a4.35,4.35,0,0,1-.11-1A4.22,4.22,0,0,1,25.15,12a8.6,8.6,0,0,0,2.68-1A4.27,4.27,0,0,1,26,13.3a8.5,8.5,0,0,0,2.42-.66A8.54,8.54,0,0,1,26.29,14.82Z"
  />
</svg>
